v 0.0 0.17370530274897644 0.0
v 1.0 0.007429424339628121 0.0
v 2.0 0.17581709981341198 0.0
v 3.0 0.1274056601967961 0.0
v 4.0 0.11916344615388685 0.0
v 5.0 0.061062057335234954 0.0
v 6.0 0.20799301363689593 0.0
v 7.0 0.11473900851665564 0.0
v 8.0 0.12274256857260457 0.0
v 9.0 0.06465831490013241 0.0
v 10.0 0.03065265352514901 0.0
v 0.0 0.0026037422840837765 1.0
v 1.0 0.17391385144796667 1.0
v 2.0 0.09012792312817197 1.0
v 3.0 0.07811350831212449 1.0
v 4.0 0.041504087176999604 1.0
v 5.0 0.24702984667719985 1.0
v 6.0 0.13923462300658707 1.0
v 7.0 0.1501022403719411 1.0
v 8.0 0.055367865713049746 1.0
v 9.0 0.053403405117793956 1.0
v 10.0 0.007980343094824649 1.0
v 0.0 0.1678649237672547 2.0
v 1.0 0.2062858700356205 2.0
v 2.0 0.11858165690436906 2.0
v 3.0 0.19322405033871104 2.0
v 4.0 0.15569156839677745 2.0
v 5.0 0.20881653790893218 2.0
v 6.0 0.053390264138546195 2.0
v 7.0 0.18285704676336678 2.0
v 8.0 0.10886320868838939 2.0
v 9.0 0.136301332535824 2.0
v 10.0 0.22926431455551632 2.0
v 0.0 0.05510976396205647 3.0
v 1.0 0.05666375935939838 3.0
v 2.0 0.09773915865979244 3.0
v 3.0 0.04000754275357499 3.0
v 4.0 0.175403525385891 3.0
v 5.0 0.12553605250066613 3.0
v 6.0 0.17251749091246837 3.0
v 7.0 0.17421167582448094 3.0
v 8.0 0.1607415790517086 3.0
v 9.0 0.11442640569053963 3.0
v 10.0 0.03872545224543422 3.0
v 0.0 0.14529985160217818 4.0
v 1.0 0.23420721078836015 4.0
v 2.0 0.10276872812926685 4.0
v 3.0 0.12055092742138973 4.0
v 4.0 0.19047117921227963 4.0
v 5.0 0.039995119440988214 4.0
v 6.0 0.013022311114038065 4.0
v 7.0 0.023536739479953273 4.0
v 8.0 0.20363498966120952 4.0
v 9.0 0.2418707131304616 4.0
v 10.0 0.10179755174503569 4.0
v 0.0 0.05390071716458067 5.0
v 1.0 0.058625288811262055 5.0
v 2.0 0.20091098616300074 5.0
v 3.0 0.14766625652300203 5.0
v 4.0 0.10992100933737536 5.0
v 5.0 0.23770792685257314 5.0
v 6.0 0.21641470136782526 5.0
v 7.0 0.013117448854129798 5.0
v 8.0 0.11888369889423367 5.0
v 9.0 0.09414013041239211 5.0
v 10.0 0.08857921969266025 5.0
v 0.0 0.04834751473497123 6.0
v 1.0 0.1795189164409 6.0
v 2.0 0.043753429639826535 6.0
v 3.0 0.19403568186504838 6.0
v 4.0 0.14161662608127723 6.0
v 5.0 0.07723928048288498 6.0
v 6.0 0.056423311747469285 6.0
v 7.0 0.13169421627557454 6.0
v 8.0 0.07439911790054321 6.0
v 9.0 0.21726971405854978 6.0
v 10.0 0.1314635776042895 6.0
v 0.0 0.0868055394280337 7.0
v 1.0 0.15141512585532035 7.0
v 2.0 0.1833189905807351 7.0
v 3.0 0.237793888188785 7.0
v 4.0 0.13483254473283435 7.0
v 5.0 0.020050914088771132 7.0
v 6.0 0.22794595637233028 7.0
v 7.0 0.15355612511070293 7.0
v 8.0 0.1647652237093875 7.0
v 9.0 0.2403974803904496 7.0
v 10.0 0.15533283882842297 7.0
v 0.0 0.19907722376533243 8.0
v 1.0 0.1598251273609821 8.0
v 2.0 0.22955128864248242 8.0
v 3.0 0.24712880324791364 8.0
v 4.0 0.20195249905078827 8.0
v 5.0 0.10976924728039239 8.0
v 6.0 0.14462652272816445 8.0
v 7.0 0.02948962036963887 8.0
v 8.0 0.2365481452790934 8.0
v 9.0 0.1302956301836331 8.0
v 10.0 0.06881491054346744 8.0
v 0.0 0.14947696827187595 9.0
v 1.0 0.19619778688448608 9.0
v 2.0 0.15242323670036884 9.0
v 3.0 0.11852548357228043 9.0
v 4.0 0.16111161425352105 9.0
v 5.0 0.09982605257835309 9.0
v 6.0 0.17416057936950413 9.0
v 7.0 0.21231052981009346 9.0
v 8.0 0.11107801390694994 9.0
v 9.0 0.1841410746966301 9.0
v 10.0 0.012122595358971977 9.0
v 0.0 0.16287496179304328 10.0
v 1.0 0.12756571143879436 10.0
v 2.0 0.2252864472644973 10.0
v 3.0 0.11824712235482315 10.0
v 4.0 0.12003004944558382 10.0
v 5.0 0.19353248079376162 10.0
v 6.0 0.017713946135157976 10.0
v 7.0 0.21274451686723472 10.0
v 8.0 0.07061583463292953 10.0
v 9.0 0.1630854275507816 10.0
v 10.0 0.12670554460086347 10.0
vn 0.16627587840934832 1.0 0.17110156046489267
vn -0.1713101091638829 1.0 -0.16648442710833855
vn -0.16838767547378386 1.0 -0.16648442710833855
vn 0.0837859283197947 1.0 0.08568917668524001
vn 0.04841143961661587 1.0 0.08568917668524001
vn 0.01201441481604748 1.0 0.04929215188467162
vn 0.008242214042909257 1.0 0.04929215188467162
vn 0.03660942113512489 1.0 0.07765935897688725
vn 0.0581013888186519 1.0 0.07765935897688725
vn -0.20552575950020024 1.0 -0.1859677893419649
vn -0.14693095630166098 1.0 -0.1859677893419649
vn 0.10779522367061278 1.0 0.06875839063030886
vn 0.09325400512024029 1.0 0.06875839063030886
vn -0.010867617365354021 1.0 -0.03536323185528545
vn -0.008003560055948933 1.0 -0.03536323185528545
vn 0.09473437465889134 1.0 0.06737470285955482
vn 0.058084253672472164 1.0 0.06737470285955482
vn 0.0019644605952557903 1.0 0.011254909782338451
vn 0.0340056613749834 1.0 0.011254909782338451
vn 0.04542306202296931 1.0 0.02267231043032436
vn -0.1713101091638829 1.0 -0.16526118148317093
vn -0.038420946268365785 1.0 -0.03237201858765382
vn 0.0837859283197947 1.0 -0.03237201858765382
vn 0.08770421313125143 1.0 -0.028453733776197088
vn 0.01201441481604748 1.0 -0.028453733776197088
vn -0.07464239343434198 1.0 -0.11511054202658655
vn 0.03660942113512489 1.0 -0.11511054202658655
vn 0.03753248194193359 1.0 -0.11418748121977784
vn -0.20552575950020024 1.0 -0.11418748121977784
vn -0.05312496951215473 1.0 0.03821330876826767
vn 0.10779522367061278 1.0 0.03821330876826767
vn 0.15542627377038598 1.0 0.08584435886804087
vn -0.010867617365354021 1.0 0.08584435886804087
vn -0.1294667826248206 1.0 -0.032754806391425695
vn 0.09473437465889134 1.0 -0.032754806391425695
vn 0.07399383807497739 1.0 -0.053495342975339644
vn 0.0019644605952557903 1.0 -0.053495342975339644
vn -0.027438123847434603 1.0 -0.08289792741803004
vn 0.04542306202296931 1.0 -0.08289792741803004
vn -0.09296298201969233 1.0 -0.22128397146069168
vn -0.038420946268365785 1.0 0.11275515980519824
vn -0.0015539953973419118 1.0 0.1496221106762221
vn 0.08770421313125143 1.0 0.1496221106762221
vn -0.041075399300394055 1.0 0.020842498244576624
vn -0.07464239343434198 1.0 0.020842498244576624
vn 0.05773161590621745 1.0 0.15321650758513605
vn 0.03753248194193359 1.0 0.15321650758513605
vn -0.135395982632316 1.0 -0.019711956989113544
vn -0.05312496951215473 1.0 -0.019711956989113544
vn 0.04986747288522486 1.0 0.08328048540826605
vn 0.15542627377038598 1.0 0.08328048540826605
vn -0.046981438411802245 1.0 -0.11912722677392218
vn -0.1294667826248206 1.0 -0.11912722677392218
vn -0.001694184912012564 1.0 0.008645370938885844
vn 0.07399383807497739 1.0 0.008645370938885844
vn 0.013470096772772333 1.0 -0.051878370363319215
vn -0.027438123847434603 1.0 -0.051878370363319215
vn 0.04631517336116897 1.0 0.02187492684528436
vn -0.09296298201969233 1.0 0.02187492684528436
vn 0.07570095344510541 1.0 0.1905388623100821
vn -0.0015539953973419118 1.0 -0.09019008764012171
vn -0.08890735918618198 1.0 -0.17754345142896177
vn -0.041075399300394055 1.0 -0.17754345142896177
vn 0.1314384826590933 1.0 -0.005029569469474415
vn 0.05773161590621745 1.0 -0.005029569469474415
vn -0.01778219929212288 1.0 -0.08054338466781474
vn -0.135395982632316 1.0 -0.08054338466781474
vn -0.0699202517908899 1.0 -0.015067653826388638
vn 0.04986747288522486 1.0 -0.015067653826388638
vn 0.15047605977129141 1.0 0.08554093305967791
vn -0.046981438411802245 1.0 0.08554093305967791
vn 0.02697280832695015 1.0 0.1594951797984303
vn -0.001694184912012564 1.0 0.1594951797984303
vn -0.010514428365915207 1.0 0.15067493634452767
vn 0.013470096772772333 1.0 0.15067493634452767
vn -0.18009825018125625 1.0 -0.042893410609500915
vn 0.04631517336116897 1.0 -0.042893410609500915
vn -0.03823572346925208 1.0 -0.12744430743992197
vn 0.07570095344510541 1.0 -0.12744430743992197
vn 0.14007316138542591 1.0 -0.06307209949960146
vn -0.08890735918618198 1.0 0.0913991344375975
vn -0.004724571646681386 1.0 0.1755819219770981
vn 0.1314384826590933 1.0 0.1755819219770981
vn -0.14228569735173868 1.0 -0.09814225803373389
vn -0.01778219929212288 1.0 -0.09814225803373389
vn 0.05324472963999871 1.0 -0.027115329101612295
vn -0.0699202517908899 1.0 -0.027115329101612295
vn 0.03774524718562666 1.0 0.08055016987490426
vn 0.15047605977129141 1.0 0.08055016987490426
vn -0.12778691751519777 1.0 -0.19771280741158492
vn 0.02697280832695015 1.0 -0.19771280741158492
vn 0.02129322548474788 1.0 -0.2033923902537872
vn -0.010514428365915207 1.0 -0.2033923902537872
vn 0.20329725251369546 1.0 0.010419290625823474
vn -0.18009825018125625 1.0 0.010419290625823474
vn -0.10576625004010387 1.0 0.08475129076697585
vn -0.03823572346925208 1.0 0.08475129076697585
vn 0.02474356848184156 1.0 0.1477305827180695
vn 0.14007316138542591 1.0 0.1477305827180695
vn 0.00556091071973186 1.0 0.013218332052375437
vn -0.004724571646681386 1.0 0.0055532024296094384
vn -0.13117140170592878 1.0 -0.12089362762963796
vn -0.14228569735173868 1.0 -0.12089362762963796
vn 0.13576548680107348 1.0 0.1571575565231742
vn 0.05324472963999871 1.0 0.1571575565231742
vn -0.15028225222522185 1.0 -0.046369425342046355
vn 0.03774524718562666 1.0 -0.046369425342046355
vn 0.05241905578377115 1.0 -0.03169561674390187
vn -0.12778691751519777 1.0 -0.03169561674390187
vn 0.06437734559839225 1.0 0.16046864636968816
vn 0.02129322548474788 1.0 0.16046864636968816
vn 0.02081596873541569 1.0 0.15999138962035597
vn 0.20329725251369546 1.0 0.15999138962035597
vn -0.07527090452810525 1.0 -0.11857676742144474
vn -0.10576625004010387 1.0 -0.11857676742144474
vn 0.05729509837503133 1.0 0.04448458099369046
vn 0.02474356848184156 1.0 0.04448458099369046
vn -0.14287059615800657 1.0 -0.12312958364615767
vn 0.00556091071973186 1.0 -0.12312958364615767
vn 0.08580613645426027 1.0 -0.042884357911629256
vn -0.13117140170592878 1.0 -0.038458024693062476
vn -0.06460958642728665 1.0 0.028103790585579658
vn 0.13576548680107348 1.0 0.028103790585579658
vn -0.03190386472541473 1.0 -0.13956556094090855
vn -0.15028225222522185 1.0 -0.13956556094090855
vn -0.05447489760804991 1.0 -0.043758206323736615
vn 0.05241905578377115 1.0 -0.043758206323736615
vn 0.10296134345595065 1.0 0.006784081348442883
vn 0.06437734559839225 1.0 0.006784081348442883
vn 0.11478163064406322 1.0 0.05718836639411384
vn 0.02081596873541569 1.0 0.05718836639411384
vn -0.20789504228355915 1.0 -0.171522644624861
vn -0.07527090452810525 1.0 -0.171522644624861
vn 0.07438983126162735 1.0 -0.021861908835128396
vn 0.05729509837503133 1.0 -0.021861908835128396
vn -0.011209098598684575 1.0 -0.0903661058088443
vn -0.14287059615800657 1.0 -0.0903661058088443
vn -0.0756322566810621 1.0 -0.023127766331899835
vn 0.08580613645426027 1.0 -0.023127766331899835
vn 0.08506464156202664 1.0 -0.023869261224133465
vn -0.06460958642728665 1.0 -0.11227168433729873
vn 0.039252096404350345 1.0 -0.008410001505661735
vn -0.03190386472541473 1.0 -0.008410001505661735
vn -0.06972616128150033 1.0 -0.046232298061747334
vn -0.05447489760804991 1.0 -0.046232298061747334
vn -0.01757751460543122 1.0 -0.009334915059128646
vn 0.10296134345595065 1.0 -0.009334915059128646
vn 0.04517630419712537 1.0 -0.06711995431795392
vn 0.11478163064406322 1.0 -0.06711995431795392
vn 0.09218325177039588 1.0 -0.08971833319162126
vn -0.20789504228355915 1.0 -0.08971833319162126
vn -0.03485727544777206 1.0 0.08331943364416583
vn 0.07438983126162735 1.0 0.08331943364416583
vn 0.11513690235852558 1.0 0.12406650474106407
vn -0.011209098598684575 1.0 0.12406650474106407
vn -0.20705852490945453 1.0 -0.0717829215697059
vn -0.0756322566810621 1.0 -0.0717829215697059
vn 0.1062525150954603 1.0 0.11010185020681651
vn 0.08506464156202664 1.0 0.11010185020681651
vn 0.06148071964016566 1.0 0.08651792828495553
vn 0.039252096404350345 1.0 0.04960025549345648
vn -0.04672081861261013 1.0 -0.03637265952350399
vn -0.06972616128150033 1.0 -0.03637265952350399
vn 0.043774550184117245 1.0 0.07712805194211358
vn -0.01757751460543122 1.0 0.07712805194211358
vn 0.033897753128088404 1.0 0.1286033196756332
vn 0.04517630419712537 1.0 0.1286033196756332
vn -0.04258613068124062 1.0 0.04084088479726722
vn 0.09218325177039588 1.0 0.04084088479726722
vn 0.061285561675167965 1.0 0.009943194702039304
vn -0.03485727544777206 1.0 0.009943194702039304
vn -0.07433452679115105 1.0 -0.02953405664133968
vn 0.11513690235852558 1.0 -0.02953405664133968
vn -0.03814995044058933 1.0 -0.1828209094404546
vn -0.20705852490945453 1.0 -0.1828209094404546
vn 0.10123251590314353 1.0 0.12547013137214347
vn 0.1062525150954603 1.0 0.12547013137214347
vn -0.07306306078968017 1.0 -0.053845444512997
vn 0.06148071964016566 1.0 -0.053845444512997
vn 0.17201847933765813 1.0 0.05669231518449547
vn -0.04672081861261013 1.0 -0.013397993521167328
vn 0.03530925035424892 1.0 0.06863207544569172
vn 0.043774550184117245 1.0 0.06863207544569172
vn -0.09772073582570295 1.0 -0.07286321056412848
vn 0.033897753128088404 1.0 -0.07286321056412848
vn 0.10703932490967416 1.0 0.00027836121745727915
vn -0.04258613068124062 1.0 0.00027836121745727915
vn -0.0017829270907606665 1.0 0.04108156480793723
vn 0.061285561675167965 1.0 0.04108156480793723
vn -0.0735024313481778 1.0 -0.09370642821540853
vn -0.07433452679115105 1.0 -0.09370642821540853
vn 0.17581853465860364 1.0 0.15644663323434616
vn -0.03814995044058933 1.0 0.15644663323434616
vn -0.19503057073207675 1.0 -0.00043398705714126073
vn 0.10123251590314353 1.0 -0.00043398705714126073
vn 0.1421286822343052 1.0 0.040462179274020404
vn -0.07306306078968017 1.0 0.040462179274020404
vn -0.09246959291785206 1.0 0.02105564714584851
vn 0.17201847933765813 1.0 0.02105564714584851
vn 0.03637988294991812 1.0 -0.1145829492418915
vt 0.097765 0.396375
vt 0.097765 0.345812
vt 0.148328 0.345812
vt 0.097765 0.396375
f 1/1/1 12/2/1 2/4/1
f 2/4/2 12/2/2 13/3/2
f 2/1/3 13/2/3 3/4/3
f 3/4/4 13/2/4 14/3/4
f 3/1/5 14/2/5 4/4/5
f 4/4/6 14/2/6 15/3/6
f 4/1/7 15/2/7 5/4/7
f 5/4/8 15/2/8 16/3/8
f 5/1/9 16/2/9 6/4/9
f 6/4/10 16/2/10 17/3/10
f 6/1/11 17/2/11 7/4/11
f 7/4/12 17/2/12 18/3/12
f 7/1/13 18/2/13 8/4/13
f 8/4/14 18/2/14 19/3/14
f 8/1/15 19/2/15 9/4/15
f 9/4/16 19/2/16 20/3/16
f 9/1/17 20/2/17 10/4/17
f 10/4/18 20/2/18 21/3/18
f 10/1/19 21/2/19 11/4/19
f 11/4/20 21/2/20 22/3/20
f 12/1/21 23/2/21 13/4/21
f 13/4/22 23/2/22 24/3/22
f 13/1/23 24/2/23 14/4/23
f 14/4/24 24/2/24 25/3/24
f 14/1/25 25/2/25 15/4/25
f 15/4/26 25/2/26 26/3/26
f 15/1/27 26/2/27 16/4/27
f 16/4/28 26/2/28 27/3/28
f 16/1/29 27/2/29 17/4/29
f 17/4/30 27/2/30 28/3/30
f 17/1/31 28/2/31 18/4/31
f 18/4/32 28/2/32 29/3/32
f 18/1/33 29/2/33 19/4/33
f 19/4/34 29/2/34 30/3/34
f 19/1/35 30/2/35 20/4/35
f 20/4/36 30/2/36 31/3/36
f 20/1/37 31/2/37 21/4/37
f 21/4/38 31/2/38 32/3/38
f 21/1/39 32/2/39 22/4/39
f 22/4/40 32/2/40 33/3/40
f 23/1/41 34/2/41 24/4/41
f 24/4/42 34/2/42 35/3/42
f 24/1/43 35/2/43 25/4/43
f 25/4/44 35/2/44 36/3/44
f 25/1/45 36/2/45 26/4/45
f 26/4/46 36/2/46 37/3/46
f 26/1/47 37/2/47 27/4/47
f 27/4/48 37/2/48 38/3/48
f 27/1/49 38/2/49 28/4/49
f 28/4/50 38/2/50 39/3/50
f 28/1/51 39/2/51 29/4/51
f 29/4/52 39/2/52 40/3/52
f 29/1/53 40/2/53 30/4/53
f 30/4/54 40/2/54 41/3/54
f 30/1/55 41/2/55 31/4/55
f 31/4/56 41/2/56 42/3/56
f 31/1/57 42/2/57 32/4/57
f 32/4/58 42/2/58 43/3/58
f 32/1/59 43/2/59 33/4/59
f 33/4/60 43/2/60 44/3/60
f 34/1/61 45/2/61 35/4/61
f 35/4/62 45/2/62 46/3/62
f 35/1/63 46/2/63 36/4/63
f 36/4/64 46/2/64 47/3/64
f 36/1/65 47/2/65 37/4/65
f 37/4/66 47/2/66 48/3/66
f 37/1/67 48/2/67 38/4/67
f 38/4/68 48/2/68 49/3/68
f 38/1/69 49/2/69 39/4/69
f 39/4/70 49/2/70 50/3/70
f 39/1/71 50/2/71 40/4/71
f 40/4/72 50/2/72 51/3/72
f 40/1/73 51/2/73 41/4/73
f 41/4/74 51/2/74 52/3/74
f 41/1/75 52/2/75 42/4/75
f 42/4/76 52/2/76 53/3/76
f 42/1/77 53/2/77 43/4/77
f 43/4/78 53/2/78 54/3/78
f 43/1/79 54/2/79 44/4/79
f 44/4/80 54/2/80 55/3/80
f 45/1/81 56/2/81 46/4/81
f 46/4/82 56/2/82 57/3/82
f 46/1/83 57/2/83 47/4/83
f 47/4/84 57/2/84 58/3/84
f 47/1/85 58/2/85 48/4/85
f 48/4/86 58/2/86 59/3/86
f 48/1/87 59/2/87 49/4/87
f 49/4/88 59/2/88 60/3/88
f 49/1/89 60/2/89 50/4/89
f 50/4/90 60/2/90 61/3/90
f 50/1/91 61/2/91 51/4/91
f 51/4/92 61/2/92 62/3/92
f 51/1/93 62/2/93 52/4/93
f 52/4/94 62/2/94 63/3/94
f 52/1/95 63/2/95 53/4/95
f 53/4/96 63/2/96 64/3/96
f 53/1/97 64/2/97 54/4/97
f 54/4/98 64/2/98 65/3/98
f 54/1/99 65/2/99 55/4/99
f 55/4/100 65/2/100 66/3/100
f 56/1/101 67/2/101 57/4/101
f 57/4/102 67/2/102 68/3/102
f 57/1/103 68/2/103 58/4/103
f 58/4/104 68/2/104 69/3/104
f 58/1/105 69/2/105 59/4/105
f 59/4/106 69/2/106 70/3/106
f 59/1/107 70/2/107 60/4/107
f 60/4/108 70/2/108 71/3/108
f 60/1/109 71/2/109 61/4/109
f 61/4/110 71/2/110 72/3/110
f 61/1/111 72/2/111 62/4/111
f 62/4/112 72/2/112 73/3/112
f 62/1/113 73/2/113 63/4/113
f 63/4/114 73/2/114 74/3/114
f 63/1/115 74/2/115 64/4/115
f 64/4/116 74/2/116 75/3/116
f 64/1/117 75/2/117 65/4/117
f 65/4/118 75/2/118 76/3/118
f 65/1/119 76/2/119 66/4/119
f 66/4/120 76/2/120 77/3/120
f 67/1/121 78/2/121 68/4/121
f 68/4/122 78/2/122 79/3/122
f 68/1/123 79/2/123 69/4/123
f 69/4/124 79/2/124 80/3/124
f 69/1/125 80/2/125 70/4/125
f 70/4/126 80/2/126 81/3/126
f 70/1/127 81/2/127 71/4/127
f 71/4/128 81/2/128 82/3/128
f 71/1/129 82/2/129 72/4/129
f 72/4/130 82/2/130 83/3/130
f 72/1/131 83/2/131 73/4/131
f 73/4/132 83/2/132 84/3/132
f 73/1/133 84/2/133 74/4/133
f 74/4/134 84/2/134 85/3/134
f 74/1/135 85/2/135 75/4/135
f 75/4/136 85/2/136 86/3/136
f 75/1/137 86/2/137 76/4/137
f 76/4/138 86/2/138 87/3/138
f 76/1/139 87/2/139 77/4/139
f 77/4/140 87/2/140 88/3/140
f 78/1/141 89/2/141 79/4/141
f 79/4/142 89/2/142 90/3/142
f 79/1/143 90/2/143 80/4/143
f 80/4/144 90/2/144 91/3/144
f 80/1/145 91/2/145 81/4/145
f 81/4/146 91/2/146 92/3/146
f 81/1/147 92/2/147 82/4/147
f 82/4/148 92/2/148 93/3/148
f 82/1/149 93/2/149 83/4/149
f 83/4/150 93/2/150 94/3/150
f 83/1/151 94/2/151 84/4/151
f 84/4/152 94/2/152 95/3/152
f 84/1/153 95/2/153 85/4/153
f 85/4/154 95/2/154 96/3/154
f 85/1/155 96/2/155 86/4/155
f 86/4/156 96/2/156 97/3/156
f 86/1/157 97/2/157 87/4/157
f 87/4/158 97/2/158 98/3/158
f 87/1/159 98/2/159 88/4/159
f 88/4/160 98/2/160 99/3/160
f 89/1/161 100/2/161 90/4/161
f 90/4/162 100/2/162 101/3/162
f 90/1/163 101/2/163 91/4/163
f 91/4/164 101/2/164 102/3/164
f 91/1/165 102/2/165 92/4/165
f 92/4/166 102/2/166 103/3/166
f 92/1/167 103/2/167 93/4/167
f 93/4/168 103/2/168 104/3/168
f 93/1/169 104/2/169 94/4/169
f 94/4/170 104/2/170 105/3/170
f 94/1/171 105/2/171 95/4/171
f 95/4/172 105/2/172 106/3/172
f 95/1/173 106/2/173 96/4/173
f 96/4/174 106/2/174 107/3/174
f 96/1/175 107/2/175 97/4/175
f 97/4/176 107/2/176 108/3/176
f 97/1/177 108/2/177 98/4/177
f 98/4/178 108/2/178 109/3/178
f 98/1/179 109/2/179 99/4/179
f 99/4/180 109/2/180 110/3/180
f 100/1/181 111/2/181 101/4/181
f 101/4/182 111/2/182 112/3/182
f 101/1/183 112/2/183 102/4/183
f 102/4/184 112/2/184 113/3/184
f 102/1/185 113/2/185 103/4/185
f 103/4/186 113/2/186 114/3/186
f 103/1/187 114/2/187 104/4/187
f 104/4/188 114/2/188 115/3/188
f 104/1/189 115/2/189 105/4/189
f 105/4/190 115/2/190 116/3/190
f 105/1/191 116/2/191 106/4/191
f 106/4/192 116/2/192 117/3/192
f 106/1/193 117/2/193 107/4/193
f 107/4/194 117/2/194 118/3/194
f 107/1/195 118/2/195 108/4/195
f 108/4/196 118/2/196 119/3/196
f 108/1/197 119/2/197 109/4/197
f 109/4/198 119/2/198 120/3/198
f 109/1/199 120/2/199 110/4/199
f 110/4/200 120/2/200 121/3/200
